<svg id="Layer_1" data-name="Layer 1" xmlns="http://www.w3.org/2000/svg" viewBox="0 0 119.57 54.05"><defs><style>.cls-1{fill:#fff;}.cls-2{fill:#1a74b7;}</style></defs><title>blog</title><rect class="cls-1" width="119.57" height="54.05" rx="27.02" ry="27.02"/><path class="cls-2" d="M59.51,45.42V25.49h7.16a10.16,10.16,0,0,1,5.86,1.41,4.7,4.7,0,0,1,2,4.09,4.77,4.77,0,0,1-.71,2.64,4.1,4.1,0,0,1-2.09,1.62,4.22,4.22,0,0,1,2.39,1.53A4.46,4.46,0,0,1,75,39.52a5.26,5.26,0,0,1-1.86,4.4,8.86,8.86,0,0,1-5.5,1.5ZM64.32,33.8h2.5a3.55,3.55,0,0,0,2.25-.58,2,2,0,0,0,.67-1.66A2.14,2.14,0,0,0,69,29.74a3.88,3.88,0,0,0-2.34-.55H64.32Zm0,3.15v4.78h3.15a3,3,0,0,0,2-.6,2.11,2.11,0,0,0,.69-1.68A2.2,2.2,0,0,0,67.69,37Z" transform="translate(-33.77 -8.42)"/><path class="cls-2" d="M82.4,41.73h8.37v3.69H77.6V25.49h4.8Z" transform="translate(-33.77 -8.42)"/><path class="cls-2" d="M108.8,35.87A11.79,11.79,0,0,1,107.72,41a8,8,0,0,1-3.08,3.45,8.51,8.51,0,0,1-4.53,1.22,8.67,8.67,0,0,1-4.52-1.17,8,8,0,0,1-3.08-3.35,11.4,11.4,0,0,1-1.15-5V35.06a11.91,11.91,0,0,1,1.07-5.17,8.1,8.1,0,0,1,3.08-3.46,9.11,9.11,0,0,1,9.09,0,8.09,8.09,0,0,1,3.08,3.43A11.39,11.39,0,0,1,108.8,35ZM103.91,35a8.4,8.4,0,0,0-1-4.51A3.18,3.18,0,0,0,100.08,29q-3.61,0-3.82,5.42v1.47a8.6,8.6,0,0,0,1,4.5A3.18,3.18,0,0,0,100.11,42a3.13,3.13,0,0,0,2.8-1.55,8.38,8.38,0,0,0,1-4.45Z" transform="translate(-33.77 -8.42)"/><path class="cls-2" d="M127.6,43a7.7,7.7,0,0,1-3.25,2,13.76,13.76,0,0,1-4.68.76,8.35,8.35,0,0,1-6.26-2.4,9.71,9.71,0,0,1-2.5-6.67V34.91a11.79,11.79,0,0,1,1-5.14,7.67,7.67,0,0,1,3-3.38,8.46,8.46,0,0,1,4.49-1.19,8.8,8.8,0,0,1,5.78,1.71,7.15,7.15,0,0,1,2.4,5.08H123a3.79,3.79,0,0,0-1.07-2.38,3.47,3.47,0,0,0-2.33-.71,3.14,3.14,0,0,0-2.79,1.53,8.16,8.16,0,0,0-1,4.38V36a8,8,0,0,0,1,4.48A3.61,3.61,0,0,0,120,42a4.06,4.06,0,0,0,2.79-.83v-3.1h-3.34v-3.3h8.15Z" transform="translate(-33.77 -8.42)"/></svg>