<svg id="Layer_2" data-name="Layer 2" xmlns="http://www.w3.org/2000/svg" viewBox="0 0 454.21 176.8"><defs><style>.cls-1,.cls-2{fill:none;stroke-miterlimit:10;}.cls-1{stroke:#231f20;stroke-width:12px;}.cls-2{stroke:#f4e4b5;stroke-width:6px;}.cls-3{fill:#1072ba;}.cls-4{fill:#fff;}</style></defs><title>logo-footer</title><g id="Layer_8" data-name="Layer 8"><g id="Layer_3" data-name="Layer 3"><path class="cls-1" d="M301.49,45.58,281,89.61h6.66q8.28,0,10.74-1.57a6.66,6.66,0,0,0,3.47-6,8.31,8.31,0,0,0-.56-3.19A15.63,15.63,0,0,0,298.75,75q-2.29-3.14-2.29-5,0-2.85,3.63-4.7L305,62.81a21.34,21.34,0,0,0,8-6.71,14.66,14.66,0,0,0,2.85-8.62A12.81,12.81,0,0,0,310.78,37q-5.08-4-13.37-4a36.91,36.91,0,0,0-16.23,3.8,34.35,34.35,0,0,0-12.53,10.07A21.36,21.36,0,0,0,263.9,59.9a10.52,10.52,0,0,0,1.23,5.15,15.24,15.24,0,0,0,4,4.36,10.46,10.46,0,0,1,2.29,2,3.56,3.56,0,0,1,.5,2.07,4.59,4.59,0,0,1-1.45,3.35,4.75,4.75,0,0,1-3.53,1.4,10,10,0,0,1-6.49-2.57,18.2,18.2,0,0,1-4.92-6.77,22.28,22.28,0,0,1-1.85-9.06,29.54,29.54,0,0,1,6.16-17.68,44.67,44.67,0,0,1,16.34-13.43,48.12,48.12,0,0,1,21.54-5,35.83,35.83,0,0,1,15,2.91,22.8,22.8,0,0,1,9.9,8.34,22.51,22.51,0,0,1,3.53,12.53q0,10.64-9.12,18.69a25.76,25.76,0,0,1-8.95,5.31A24.16,24.16,0,0,1,311.34,77a16.28,16.28,0,0,1-1.62,14.26,16.46,16.46,0,0,1-7.16,6.1,19.78,19.78,0,0,1-5.6,1.51,70.22,70.22,0,0,1-9,.45H276.6a18.94,18.94,0,0,1-3-.17,4.91,4.91,0,0,1-2-.61A4.85,4.85,0,0,1,269.16,94a9.4,9.4,0,0,1,.44-2.63,34.63,34.63,0,0,1,1.74-4.08L292.21,42.5a19.71,19.71,0,0,1,3-4.92,4.46,4.46,0,0,1,3.3-1.23,4.59,4.59,0,0,1,3.3,1.23,4.19,4.19,0,0,1,1.29,3.08A15,15,0,0,1,301.49,45.58Z" transform="translate(-29.25 -17.7)"/><path class="cls-1" d="M326.77,79a12.13,12.13,0,0,1-1.56-5.77q0-7.55,9.84-12.42a63.31,63.31,0,0,1,6.16-2.63,15.38,15.38,0,0,1,4.14-1,4.45,4.45,0,0,1,3,1.12,3.86,3.86,0,0,1-.39,5.87,53.21,53.21,0,0,1-5.49,2.57l-3.86,1.68a11.63,11.63,0,0,0-3.47,2.18,3.42,3.42,0,0,0-1.06,2.47,6.17,6.17,0,0,0,.5,2.12q5.72-2.69,7.56-2.68a3.68,3.68,0,0,1,2.68,1.17,3.8,3.8,0,0,1,1.18,2.8,3.71,3.71,0,0,1-.84,2.46,7.59,7.59,0,0,1-2.91,1.9l-3.52,1.57-5,2.24a22.35,22.35,0,0,0-4.42,2.52,3.36,3.36,0,0,0-1.4,2.57q0,2.07,2.85,2.07a29.76,29.76,0,0,0,9.4-2.13,68.94,68.94,0,0,0,11.42-5.48c2.61-1.6,4.4-2.41,5.37-2.41a3.66,3.66,0,0,1,3.75,3.75,5.24,5.24,0,0,1-2.18,4,42.32,42.32,0,0,1-8,4.82,65.38,65.38,0,0,1-11.19,4.36,36.06,36.06,0,0,1-9.56,1.34c-3.66,0-6.51-.85-8.56-2.57A8.42,8.42,0,0,1,318,90.56Q318,83.63,326.77,79Z" transform="translate(-29.25 -17.7)"/><path class="cls-1" d="M372.86,95.21a31.93,31.93,0,0,1-6.1,3.86,13.62,13.62,0,0,1-5.31,1,10,10,0,0,1-7.78-3.13,11.55,11.55,0,0,1-2.91-8.28q0-6.82,4.93-13.76a38.66,38.66,0,0,1,12.92-11.58,44.72,44.72,0,0,1,6.27-3,42.45,42.45,0,0,1,6.94-2.18,28.51,28.51,0,0,1,5.81-.78c3.4,0,5.09,1.34,5.09,4a3.21,3.21,0,0,1-1.23,2.79A11.05,11.05,0,0,1,387,65.72,45.54,45.54,0,0,0,378,68.29a38,38,0,0,0-7.55,4.37A29.31,29.31,0,0,0,363.18,80c-1.82,2.72-2.74,5.14-2.74,7.27a4.14,4.14,0,0,0,.84,2.74,2.47,2.47,0,0,0,2.18,1.07,7.23,7.23,0,0,0,4.2-1.63,36.85,36.85,0,0,0,5.2-5.2l.51-1.23c1-2.31,1.53-3.56,1.67-3.75l1.74-3.69a16.75,16.75,0,0,1,3-4.81,4.56,4.56,0,0,1,3.36-1.35,4.39,4.39,0,0,1,3,1,3.4,3.4,0,0,1,1.18,2.63,13.14,13.14,0,0,1-1.46,4.53L384,81.44c-.12.26-.25.56-.4.9a5.6,5.6,0,0,1-.39.78,3.88,3.88,0,0,1-.28.59c-.11.2-.21.4-.3.59s-.2.39-.31.61a10.49,10.49,0,0,0-1.4,3.92,1.75,1.75,0,0,0,2,2A6.45,6.45,0,0,0,386,89.67c.9-.53,3-2,6.43-4.59A38.25,38.25,0,0,1,396,82.56a3.53,3.53,0,0,1,1.84-.5,3.93,3.93,0,0,1,2.63,1,3.42,3.42,0,0,1,1.12,2.47q0,3.41-7,8.22A45.37,45.37,0,0,1,386,98.67a17.47,17.47,0,0,1-6.83,1.4Q373.7,100.07,372.86,95.21Z" transform="translate(-29.25 -17.7)"/><path class="cls-1" d="M416.77,68.8a35.44,35.44,0,0,0-7.22,5.31A34.18,34.18,0,0,0,404,80.94a12.21,12.21,0,0,0-2.18,6c0,2.76,1.69,4.14,5.09,4.14a25.17,25.17,0,0,0,7.5-1.52,59.71,59.71,0,0,0,8.72-3.41l5.37-2.63a11,11,0,0,1,4.54-1.4,3.39,3.39,0,0,1,2.57,1.07,4,4,0,0,1,.95,2.68,5.64,5.64,0,0,1-2.4,4.25A39.78,39.78,0,0,1,425.67,95a71,71,0,0,1-10.35,3.75,36,36,0,0,1-9.07,1.28,18.5,18.5,0,0,1-7.61-1.4,10,10,0,0,1-4.86-4.14A12.43,12.43,0,0,1,392.1,88a19.39,19.39,0,0,1,1.62-7.39,31.66,31.66,0,0,1,4.76-7.72,43.91,43.91,0,0,1,7.16-7A43.26,43.26,0,0,1,415,60.18a21.77,21.77,0,0,1,8.34-2.12,5.47,5.47,0,0,1,3.52,1.11,3.92,3.92,0,0,1,1.29,3,10.65,10.65,0,0,1-.67,3.13c-.52,1.38-.88,2.27-1.06,2.68l-1.85,4-1.18,2.52c-1,2.28-2.44,3.41-4.19,3.41a3.93,3.93,0,0,1-2.91-1.06,3.52,3.52,0,0,1-1.18-2.63A14.4,14.4,0,0,1,416.77,68.8Z" transform="translate(-29.25 -17.7)"/><path class="cls-1" d="M457,44.07l-8.16,17.57a15.12,15.12,0,0,1,9.4-3.58,7.69,7.69,0,0,1,5.59,2A7,7,0,0,1,466,65.38q0,4-3.14,10.36l-2.52,5-2.29,4.59a11,11,0,0,0-1.29,3.64c0,1.27.58,1.9,1.74,1.9a4.81,4.81,0,0,0,1.84-.45,14.52,14.52,0,0,0,2.58-1.51c1-.67,2.46-1.8,4.47-3.41s3.4-2.52,4.15-3a4.76,4.76,0,0,1,2.34-.62,3.64,3.64,0,0,1,3.59,3.58c0,1.61-1.14,3.41-3.42,5.43a51.48,51.48,0,0,1-6.49,4.75A33.44,33.44,0,0,1,461,98.9a16.6,16.6,0,0,1-5.6,1.17,8.64,8.64,0,0,1-6.38-2.4,8.13,8.13,0,0,1-2.46-6.16,16.23,16.23,0,0,1,1.18-5.31A92.57,92.57,0,0,1,453,75.06c1.67-3.31,2.51-5.33,2.51-6q0-1.56-1.62-1.56a10.86,10.86,0,0,0-4.75,1.79,38.67,38.67,0,0,0-5.88,4.3L433.6,94.37a22.32,22.32,0,0,1-1.84,3.52,5.41,5.41,0,0,1-1.85,1.68,9.09,9.09,0,0,1-1.85.5h-.33a4.15,4.15,0,0,1-3-1.17A3.85,3.85,0,0,1,423.53,96,12.83,12.83,0,0,1,425,91.51l23.44-50.29a18.83,18.83,0,0,1,2.8-4.65,4.09,4.09,0,0,1,3-1.06,4.51,4.51,0,0,1,3.08,1.12,3.74,3.74,0,0,1,1.17,2.91A12.8,12.8,0,0,1,457,44.07Z" transform="translate(-29.25 -17.7)"/><path class="cls-1" d="M78.67,32.9a36.56,36.56,0,0,0-16.06,3.81A34.89,34.89,0,0,0,50.08,46.78,21.13,21.13,0,0,0,45.32,59.7a10.44,10.44,0,0,0,3.86,8.56l2.35,1.79a4.47,4.47,0,0,1,1.91,3.58,4.18,4.18,0,0,1-1.4,3.3,4.88,4.88,0,0,1-3.53,1.34,9.91,9.91,0,0,1-6.38-2.62,18.33,18.33,0,0,1-5-7,22.18,22.18,0,0,1-1.9-9,28.72,28.72,0,0,1,6.21-17.51,44.2,44.2,0,0,1,16.4-13.37,47.78,47.78,0,0,1,21.37-5,36.73,36.73,0,0,1,11.58,1.73,28,28,0,0,1,9.12,4.92,23.17,23.17,0,0,1,5.82,7.5,21.23,21.23,0,0,1,2.07,9.51,24.88,24.88,0,0,1-1.46,8.17A28.23,28.23,0,0,1,95.84,69.21,32.94,32.94,0,0,1,89,72.9a17.93,17.93,0,0,1-6.15,1.46,5.7,5.7,0,0,1-3.92-1.29,4.22,4.22,0,0,1-1.51-3.36q0-3.08,3.41-4.14l2.3-.67A21.12,21.12,0,0,0,90.59,61a18.69,18.69,0,0,0,5.09-6.27,16.83,16.83,0,0,0,1.79-7.38,12.6,12.6,0,0,0-2.35-7.56,16,16,0,0,0-6.72-5.09A25.73,25.73,0,0,0,78.67,32.9Zm-27.58,58,22.6-48.45a23.31,23.31,0,0,1,2-3.58,6.24,6.24,0,0,1,2-2.07,5.28,5.28,0,0,1,2.35-.5,4.52,4.52,0,0,1,3.25,1.23,4.22,4.22,0,0,1,1.28,3.08,13.7,13.7,0,0,1-1.62,4.92L60.37,93.94a16.81,16.81,0,0,1-2.91,4.87,4.84,4.84,0,0,1-3.41,1.28,4.37,4.37,0,0,1-3.24-1.28,4.26,4.26,0,0,1-1.29-3.14A12.34,12.34,0,0,1,51.09,90.86Z" transform="translate(-29.25 -17.7)"/><path class="cls-1" d="M102.16,82.19l8.61-18.41a16.43,16.43,0,0,1,2.8-4.58,4.07,4.07,0,0,1,3-1.12,4.43,4.43,0,0,1,3,1.12,3.65,3.65,0,0,1,1.23,2.91,12.34,12.34,0,0,1-1.51,4.53l-8.73,18.8a10.7,10.7,0,0,0-1.11,3.47c0,1.19.57,1.79,1.73,1.79q2.4,0,9-5.21a31.14,31.14,0,0,1,4-2.91,4.82,4.82,0,0,1,2.29-.72,3.51,3.51,0,0,1,2.58,1.06,3.56,3.56,0,0,1,1.06,2.63q0,2.74-5.2,6.94-9.47,7.61-16.79,7.6a8.9,8.9,0,0,1-6.38-2.34,8.11,8.11,0,0,1-2.4-6,14.16,14.16,0,0,1,.73-4.19A48.73,48.73,0,0,1,102.16,82.19Zm24.89-32a6.76,6.76,0,0,1-1.56,4.59,5.26,5.26,0,0,1-4.26,1.9,4.56,4.56,0,0,1-3.52-1.46,4.91,4.91,0,0,1-1.4-3.63A6.22,6.22,0,0,1,118,47.06a5.29,5.29,0,0,1,4.14-1.74,4.89,4.89,0,0,1,3.52,1.34A4.65,4.65,0,0,1,127.05,50.19Z" transform="translate(-29.25 -17.7)"/><path class="cls-1" d="M139.8,70.83l-1.06,2.24A16.92,16.92,0,0,1,136,77.6a4.11,4.11,0,0,1-3.07,1.18,4.06,4.06,0,0,1-3-1.18,3.63,3.63,0,0,1-1.23-2.91,12.8,12.8,0,0,1,1.51-4.47L136.78,56a32.69,32.69,0,0,1,2-3.92,5.24,5.24,0,0,1,1.57-1.57,4.43,4.43,0,0,1,2.07-.39,4.71,4.71,0,0,1,3.19,1.07,3.85,3.85,0,0,1,1.17,3,3.43,3.43,0,0,1-.17,1.23L146,57.8a7.09,7.09,0,0,0-.28,2,9.43,9.43,0,0,0,.51,3,52.37,52.37,0,0,0,2.18,5.37c.93,2,2,4.61,3.13,7.66a24.41,24.41,0,0,1,1.63,7.89A16.63,16.63,0,0,1,151,92a15.56,15.56,0,0,1-5.93,5.93,16.62,16.62,0,0,1-15.83.34,14.74,14.74,0,0,1-5.77-4.87,10.25,10.25,0,0,1-2.24-6.27,5.35,5.35,0,0,1,1.4-3.86,4.51,4.51,0,0,1,3.47-1.45A3.82,3.82,0,0,1,130,84.65l.84,2.35c1.08,3,3,4.53,5.65,4.53a6.91,6.91,0,0,0,5.26-2.18,7.28,7.28,0,0,0,2-5.2q0-2.69-3-10.3A19.26,19.26,0,0,1,139.8,70.83Z" transform="translate(-29.25 -17.7)"/><path class="cls-1" d="M193.11,72.34l-10.3,22a17,17,0,0,1-2.74,4.53,4.17,4.17,0,0,1-3.08,1.17,4.11,4.11,0,0,1-3-1.17A3.65,3.65,0,0,1,172.74,96a13.86,13.86,0,0,1,1.46-4.48l8.28-17.68q1.78-4,1.79-5,0-1.29-1.35-1.29-2.56,0-9.56,5.82l-.28.22L163.4,94.39a17.23,17.23,0,0,1-2.74,4.53,4.19,4.19,0,0,1-3.08,1.17,4.09,4.09,0,0,1-3-1.17A3.65,3.65,0,0,1,153.33,96a12.83,12.83,0,0,1,1.51-4.48l12.92-27.75a17.31,17.31,0,0,1,2.8-4.58,4.07,4.07,0,0,1,3-1.12,4.22,4.22,0,0,1,3,1,4.09,4.09,0,0,1,1.23,2.8q5.14-3.8,9.18-3.8a7.34,7.34,0,0,1,4.36,1.23,5.56,5.56,0,0,1,2.24,3.47q6.49-4.71,12.2-4.7a8.2,8.2,0,0,1,5.7,2,6.52,6.52,0,0,1,2.24,5.09,16.09,16.09,0,0,1-.95,5.37q-1.17,3-4.75,10.19c-1.8,3.61-2.8,5.7-3,6.26a5.16,5.16,0,0,0-.44,1.91,1.73,1.73,0,0,0,.56,1.28,1.52,1.52,0,0,0,1.23.62,6.12,6.12,0,0,0,3.13-1.12c1.19-.75,3.1-2.15,5.71-4.2,1.82-1.45,3.19-2.46,4.08-3a4.71,4.71,0,0,1,2.29-.61,3.65,3.65,0,0,1,2.63,1,3.45,3.45,0,0,1,1.07,2.52q0,2.18-3.47,5.48a39.57,39.57,0,0,1-6.27,4.76,30.19,30.19,0,0,1-6.6,3.24,15.79,15.79,0,0,1-5.54,1.23,8.68,8.68,0,0,1-6.32-2.23,7.7,7.7,0,0,1-2.41-6,17,17,0,0,1,1-5.54,71.18,71.18,0,0,1,3.58-8.22q3.92-7.62,3.92-9.29a1.25,1.25,0,0,0-.39-.9,1.61,1.61,0,0,0-1.07-.33Q198.87,67.59,193.11,72.34Z" transform="translate(-29.25 -17.7)"/><path class="cls-1" d="M216.09,85.94a30.25,30.25,0,0,1,1.79-10.18,32.44,32.44,0,0,1,4.93-9.07A23.55,23.55,0,0,1,230,60.32a16.08,16.08,0,0,1,8.12-2.24,13,13,0,0,1,6.65,1.62,11.22,11.22,0,0,1,4.26,4.76A18,18,0,0,1,250.5,72a31.46,31.46,0,0,1-3.08,13.65,28.23,28.23,0,0,1-8.22,10.52,17.21,17.21,0,0,1-10.63,4,11.61,11.61,0,0,1-9.07-3.86Q216.09,92.44,216.09,85.94Zm9.9.11a5.31,5.31,0,0,0,1.12,3.58A3.61,3.61,0,0,0,230,91q3.81,0,7.72-7.78a25.34,25.34,0,0,0,3.08-11.3,6.29,6.29,0,0,0-.95-3.75,3.26,3.26,0,0,0-2.8-1.29A6.14,6.14,0,0,0,232.76,69a25.1,25.1,0,0,0-4.14,6.66A27.24,27.24,0,0,0,226,86.05Z" transform="translate(-29.25 -17.7)"/></g><g id="Layer_3_copy_2" data-name="Layer 3 copy 2"><path class="cls-2" d="M300.51,43.6,280,87.63h6.66q8.28,0,10.74-1.57a6.66,6.66,0,0,0,3.47-6,8.31,8.31,0,0,0-.56-3.19A15.63,15.63,0,0,0,297.77,73q-2.29-3.14-2.29-5,0-2.85,3.63-4.7L304,60.83a21.34,21.34,0,0,0,8-6.71,14.66,14.66,0,0,0,2.85-8.62A12.8,12.8,0,0,0,309.8,35q-5.08-4-13.37-4a36.92,36.92,0,0,0-16.23,3.81,34.35,34.35,0,0,0-12.53,10.07,21.36,21.36,0,0,0-4.75,13.09,10.52,10.52,0,0,0,1.23,5.15,15.34,15.34,0,0,0,4,4.36,10.34,10.34,0,0,1,2.3,2,3.64,3.64,0,0,1,.5,2.07,4.59,4.59,0,0,1-1.45,3.35,4.77,4.77,0,0,1-3.53,1.4,10,10,0,0,1-6.49-2.57,18.2,18.2,0,0,1-4.92-6.77,22.28,22.28,0,0,1-1.85-9.06,29.54,29.54,0,0,1,6.16-17.68,44.72,44.72,0,0,1,16.33-13.43,48.19,48.19,0,0,1,21.54-5,35.84,35.84,0,0,1,15,2.91,22.8,22.8,0,0,1,9.9,8.34,22.48,22.48,0,0,1,3.53,12.53q0,10.64-9.12,18.69a25.76,25.76,0,0,1-8.95,5.31A24.16,24.16,0,0,1,310.36,75a16.28,16.28,0,0,1-1.62,14.26,16.46,16.46,0,0,1-7.16,6.1,19.78,19.78,0,0,1-5.6,1.51,70.22,70.22,0,0,1-9,.45H275.62a19,19,0,0,1-3-.17,4.86,4.86,0,0,1-4.48-5.09,9.4,9.4,0,0,1,.45-2.63,34.63,34.63,0,0,1,1.74-4.08l20.87-44.82a19.71,19.71,0,0,1,3-4.92,4.46,4.46,0,0,1,3.3-1.23,4.59,4.59,0,0,1,3.3,1.23,4.19,4.19,0,0,1,1.29,3.08A15.24,15.24,0,0,1,300.51,43.6Z" transform="translate(-29.25 -17.7)"/><path class="cls-2" d="M325.79,77.06a12.13,12.13,0,0,1-1.56-5.77q0-7.55,9.84-12.42a63.31,63.31,0,0,1,6.16-2.63,15.38,15.38,0,0,1,4.14-1,4.45,4.45,0,0,1,3,1.12,3.86,3.86,0,0,1-.39,5.87,53.21,53.21,0,0,1-5.49,2.57l-3.86,1.68a11.76,11.76,0,0,0-3.47,2.18,3.38,3.38,0,0,0-1.06,2.47,6.22,6.22,0,0,0,.5,2.12q5.72-2.69,7.56-2.68a3.7,3.7,0,0,1,2.68,1.17,3.8,3.8,0,0,1,1.18,2.8A3.71,3.71,0,0,1,344.2,77a7.59,7.59,0,0,1-2.91,1.9l-3.53,1.57-5,2.24a22.61,22.61,0,0,0-4.42,2.51,3.39,3.39,0,0,0-1.4,2.58q0,2.07,2.85,2.07a29.76,29.76,0,0,0,9.4-2.13,68.94,68.94,0,0,0,11.42-5.48c2.61-1.6,4.4-2.41,5.37-2.41a3.66,3.66,0,0,1,3.75,3.75,5.22,5.22,0,0,1-2.19,4,41.8,41.8,0,0,1-8,4.82,65.38,65.38,0,0,1-11.19,4.36,36.06,36.06,0,0,1-9.56,1.34c-3.66,0-6.51-.85-8.56-2.57a8.42,8.42,0,0,1-3.14-6.94Q317.06,81.65,325.79,77.06Z" transform="translate(-29.25 -17.7)"/><path class="cls-2" d="M371.88,93.23a31.93,31.93,0,0,1-6.1,3.86,13.62,13.62,0,0,1-5.31,1A10,10,0,0,1,352.69,95a11.55,11.55,0,0,1-2.91-8.28q0-6.83,4.93-13.76a38.79,38.79,0,0,1,12.92-11.59,45.87,45.87,0,0,1,6.27-3,42.65,42.65,0,0,1,6.93-2.18,28.67,28.67,0,0,1,5.82-.78c3.4,0,5.09,1.34,5.09,4a3.21,3.21,0,0,1-1.23,2.79A11.05,11.05,0,0,1,386,63.74,45.54,45.54,0,0,0,377,66.31a37.7,37.7,0,0,0-7.55,4.37A29.31,29.31,0,0,0,362.2,78c-1.82,2.72-2.74,5.14-2.74,7.27A4.14,4.14,0,0,0,360.3,88a2.46,2.46,0,0,0,2.18,1.06,7.28,7.28,0,0,0,4.2-1.62,36.85,36.85,0,0,0,5.2-5.2l.51-1.23c1-2.31,1.53-3.56,1.67-3.75l1.74-3.69a16.75,16.75,0,0,1,3-4.81,4.55,4.55,0,0,1,3.36-1.35,4.39,4.39,0,0,1,3,1,3.4,3.4,0,0,1,1.18,2.63,13.2,13.2,0,0,1-1.46,4.53L383,79.46c-.12.26-.25.56-.4.9a7,7,0,0,1-.39.78,3.88,3.88,0,0,1-.28.59c-.11.2-.21.4-.3.59s-.2.39-.31.61a10.49,10.49,0,0,0-1.4,3.92,1.75,1.75,0,0,0,2,2A6.45,6.45,0,0,0,385,87.69c.9-.53,3-2,6.43-4.59a38.25,38.25,0,0,1,3.59-2.52,3.53,3.53,0,0,1,1.84-.5,3.93,3.93,0,0,1,2.63,1,3.42,3.42,0,0,1,1.12,2.47q0,3.4-7,8.22A45.37,45.37,0,0,1,385,96.69a17.46,17.46,0,0,1-6.82,1.4Q372.72,98.09,371.88,93.23Z" transform="translate(-29.25 -17.7)"/><path class="cls-2" d="M415.79,66.82a35.44,35.44,0,0,0-7.22,5.31A34.18,34.18,0,0,0,403,79a12.21,12.21,0,0,0-2.18,6c0,2.76,1.69,4.13,5.09,4.13a25.11,25.11,0,0,0,7.5-1.51,59.71,59.71,0,0,0,8.72-3.41l5.37-2.63a11,11,0,0,1,4.54-1.4,3.39,3.39,0,0,1,2.57,1.07,4,4,0,0,1,1,2.68,5.64,5.64,0,0,1-2.4,4.25,40.22,40.22,0,0,1-8.45,4.93,71,71,0,0,1-10.35,3.75,36,36,0,0,1-9.07,1.28,18.5,18.5,0,0,1-7.61-1.4,10.11,10.11,0,0,1-4.86-4.14A12.43,12.43,0,0,1,391.12,86a19.39,19.39,0,0,1,1.62-7.39,31.66,31.66,0,0,1,4.76-7.72A46.73,46.73,0,0,1,414,58.2a21.77,21.77,0,0,1,8.34-2.12,5.49,5.49,0,0,1,3.52,1.11,3.92,3.92,0,0,1,1.29,3,10.65,10.65,0,0,1-.67,3.13c-.52,1.38-.88,2.27-1.06,2.68l-1.85,4-1.18,2.52c-1,2.28-2.44,3.41-4.19,3.41a3.93,3.93,0,0,1-2.91-1.06,3.5,3.5,0,0,1-1.18-2.63A14.4,14.4,0,0,1,415.79,66.82Z" transform="translate(-29.25 -17.7)"/><path class="cls-2" d="M456.06,42.09,447.9,59.66a15.11,15.11,0,0,1,9.39-3.58,7.7,7.7,0,0,1,5.6,2A7,7,0,0,1,465,63.4q0,4-3.14,10.35l-2.52,5-2.29,4.59A11,11,0,0,0,455.78,87c0,1.27.58,1.9,1.74,1.9a4.81,4.81,0,0,0,1.84-.45,14.52,14.52,0,0,0,2.58-1.51q1.46-1,4.47-3.41t4.14-3a4.83,4.83,0,0,1,2.35-.62,3.64,3.64,0,0,1,3.59,3.58q0,2.4-3.42,5.43a51.48,51.48,0,0,1-6.49,4.75A33.72,33.72,0,0,1,460,96.92a16.65,16.65,0,0,1-5.6,1.17,8.64,8.64,0,0,1-6.38-2.4,8.13,8.13,0,0,1-2.46-6.16,16.23,16.23,0,0,1,1.18-5.31A92.57,92.57,0,0,1,452,73.08q2.5-5,2.51-6a1.41,1.41,0,0,0-1.62-1.57,11,11,0,0,0-4.76,1.8,38.41,38.41,0,0,0-5.87,4.3l-9.68,20.82a22.32,22.32,0,0,1-1.84,3.52,5.41,5.41,0,0,1-1.85,1.68,9.09,9.09,0,0,1-1.85.5h-.33a4.15,4.15,0,0,1-3-1.17A3.87,3.87,0,0,1,422.55,94a12.83,12.83,0,0,1,1.51-4.48l23.44-50.3a18.61,18.61,0,0,1,2.8-4.64,4.09,4.09,0,0,1,3-1.06,4.51,4.51,0,0,1,3.08,1.12,3.74,3.74,0,0,1,1.17,2.91A12.8,12.8,0,0,1,456.06,42.09Z" transform="translate(-29.25 -17.7)"/><path class="cls-2" d="M77.69,30.92a36.56,36.56,0,0,0-16.06,3.81A34.89,34.89,0,0,0,49.1,44.8a21.13,21.13,0,0,0-4.76,12.92,10.44,10.44,0,0,0,3.86,8.56l2.35,1.79a4.47,4.47,0,0,1,1.91,3.58,4.18,4.18,0,0,1-1.4,3.3,4.88,4.88,0,0,1-3.53,1.34,9.91,9.91,0,0,1-6.38-2.62,18.33,18.33,0,0,1-5-7,22.18,22.18,0,0,1-1.9-9,28.72,28.72,0,0,1,6.21-17.51,44.2,44.2,0,0,1,16.4-13.37,47.78,47.78,0,0,1,21.37-5,36.73,36.73,0,0,1,11.58,1.73A28,28,0,0,1,99,28.4a23.17,23.17,0,0,1,5.82,7.5,21.23,21.23,0,0,1,2.07,9.51,24.88,24.88,0,0,1-1.46,8.17A28.23,28.23,0,0,1,94.86,67.23,32.94,32.94,0,0,1,88,70.92a17.93,17.93,0,0,1-6.15,1.46,5.7,5.7,0,0,1-3.92-1.29,4.22,4.22,0,0,1-1.51-3.36q0-3.08,3.41-4.14l2.3-.67A21.12,21.12,0,0,0,89.61,59a18.69,18.69,0,0,0,5.09-6.27,16.83,16.83,0,0,0,1.79-7.38,12.6,12.6,0,0,0-2.35-7.56,16,16,0,0,0-6.72-5.09A25.73,25.73,0,0,0,77.69,30.92Zm-27.58,58,22.6-48.45a23.31,23.31,0,0,1,2-3.58,6.24,6.24,0,0,1,2-2.07,5.28,5.28,0,0,1,2.35-.5,4.52,4.52,0,0,1,3.25,1.23,4.22,4.22,0,0,1,1.28,3.08,13.7,13.7,0,0,1-1.62,4.92L59.39,92a16.81,16.81,0,0,1-2.91,4.87,4.84,4.84,0,0,1-3.41,1.28,4.37,4.37,0,0,1-3.24-1.28,4.26,4.26,0,0,1-1.29-3.14A12.34,12.34,0,0,1,50.11,88.88Z" transform="translate(-29.25 -17.7)"/><path class="cls-2" d="M101.18,80.21l8.61-18.41a16.43,16.43,0,0,1,2.8-4.58,4.07,4.07,0,0,1,3-1.12,4.43,4.43,0,0,1,3,1.12,3.65,3.65,0,0,1,1.23,2.91,12.34,12.34,0,0,1-1.51,4.53l-8.73,18.8a10.7,10.7,0,0,0-1.11,3.47c0,1.19.57,1.79,1.73,1.79q2.4,0,9-5.21a31.14,31.14,0,0,1,4-2.91,4.82,4.82,0,0,1,2.29-.72,3.51,3.51,0,0,1,2.58,1.06,3.56,3.56,0,0,1,1.06,2.63q0,2.75-5.2,6.94-9.47,7.6-16.79,7.6a8.9,8.9,0,0,1-6.38-2.34,8.11,8.11,0,0,1-2.4-6,14.16,14.16,0,0,1,.73-4.19A48.73,48.73,0,0,1,101.18,80.21Zm24.89-32a6.76,6.76,0,0,1-1.56,4.59,5.26,5.26,0,0,1-4.26,1.9,4.56,4.56,0,0,1-3.52-1.46,4.91,4.91,0,0,1-1.4-3.63A6.22,6.22,0,0,1,117,45.08a5.29,5.29,0,0,1,4.14-1.74,4.89,4.89,0,0,1,3.52,1.34A4.65,4.65,0,0,1,126.07,48.21Z" transform="translate(-29.25 -17.7)"/><path class="cls-2" d="M138.82,68.85l-1.06,2.24A16.92,16.92,0,0,1,135,75.62a4.11,4.11,0,0,1-3.07,1.18,4.06,4.06,0,0,1-3-1.18,3.63,3.63,0,0,1-1.23-2.91,12.8,12.8,0,0,1,1.51-4.47L135.8,54a32.69,32.69,0,0,1,2-3.92,5.24,5.24,0,0,1,1.57-1.57,4.43,4.43,0,0,1,2.07-.39,4.71,4.71,0,0,1,3.19,1.07,3.85,3.85,0,0,1,1.17,3,3.7,3.7,0,0,1-.16,1.23L145,55.82a7.09,7.09,0,0,0-.28,2,9.43,9.43,0,0,0,.51,3,52.37,52.37,0,0,0,2.18,5.37c.93,2,2,4.61,3.13,7.66a24.41,24.41,0,0,1,1.63,7.89A16.63,16.63,0,0,1,150,90a15.56,15.56,0,0,1-5.93,5.93,16.62,16.62,0,0,1-15.83.34,14.74,14.74,0,0,1-5.77-4.87,10.25,10.25,0,0,1-2.24-6.27,5.35,5.35,0,0,1,1.4-3.86,4.51,4.51,0,0,1,3.47-1.45A3.82,3.82,0,0,1,129,82.67l.84,2.35c1.08,3,3,4.53,5.65,4.53a6.91,6.91,0,0,0,5.26-2.18,7.28,7.28,0,0,0,2-5.2q0-2.69-3-10.29A19.68,19.68,0,0,1,138.82,68.85Z" transform="translate(-29.25 -17.7)"/><path class="cls-2" d="M192.13,70.36l-10.3,22a16.7,16.7,0,0,1-2.74,4.53A4.17,4.17,0,0,1,176,98.11a4.11,4.11,0,0,1-3-1.17A3.65,3.65,0,0,1,171.76,94a13.86,13.86,0,0,1,1.46-4.48l8.28-17.67q1.78-4,1.79-5c0-.86-.45-1.29-1.34-1.29q-2.58,0-9.57,5.82l-.28.22-9.68,20.76a17.23,17.23,0,0,1-2.74,4.53,4.19,4.19,0,0,1-3.08,1.17,4.09,4.09,0,0,1-3-1.17A3.65,3.65,0,0,1,152.35,94a12.83,12.83,0,0,1,1.51-4.48L166.78,61.8a17.31,17.31,0,0,1,2.8-4.58,4.07,4.07,0,0,1,3-1.12,4.22,4.22,0,0,1,3,1,4.09,4.09,0,0,1,1.23,2.8c3.44-2.53,6.49-3.8,9.18-3.8a7.34,7.34,0,0,1,4.36,1.23,5.56,5.56,0,0,1,2.24,3.47q6.5-4.71,12.2-4.7a8.24,8.24,0,0,1,5.71,2,6.55,6.55,0,0,1,2.23,5.09,15.84,15.84,0,0,1-1,5.37q-1.17,3-4.75,10.19c-1.79,3.62-2.8,5.7-3,6.26a5.16,5.16,0,0,0-.44,1.91,1.73,1.73,0,0,0,.56,1.28,1.52,1.52,0,0,0,1.23.62,6.12,6.12,0,0,0,3.13-1.12c1.19-.75,3.1-2.15,5.71-4.2,1.82-1.45,3.19-2.46,4.08-3a4.72,4.72,0,0,1,2.3-.61,3.69,3.69,0,0,1,2.63,1,3.48,3.48,0,0,1,1.06,2.52q0,2.17-3.47,5.48a39.57,39.57,0,0,1-6.27,4.76,30.19,30.19,0,0,1-6.6,3.24,15.79,15.79,0,0,1-5.54,1.23,8.68,8.68,0,0,1-6.32-2.23,7.7,7.7,0,0,1-2.41-6,17,17,0,0,1,1-5.54,71.18,71.18,0,0,1,3.58-8.22q3.91-7.62,3.92-9.29a1.25,1.25,0,0,0-.39-.9,1.61,1.61,0,0,0-1.07-.33Q197.89,65.61,192.13,70.36Z" transform="translate(-29.25 -17.7)"/><path class="cls-2" d="M215.11,84a30.25,30.25,0,0,1,1.79-10.18,32.19,32.19,0,0,1,4.93-9.07A23.55,23.55,0,0,1,229,58.34a16.08,16.08,0,0,1,8.12-2.24,13,13,0,0,1,6.65,1.62,11.22,11.22,0,0,1,4.26,4.76A18,18,0,0,1,249.52,70a31.46,31.46,0,0,1-3.08,13.65,28.23,28.23,0,0,1-8.22,10.52,17.21,17.21,0,0,1-10.63,4,11.61,11.61,0,0,1-9.07-3.86Q215.12,90.46,215.11,84Zm9.9.11a5.31,5.31,0,0,0,1.12,3.58A3.61,3.61,0,0,0,229,89q3.81,0,7.72-7.78a25.34,25.34,0,0,0,3.08-11.3,6.29,6.29,0,0,0-1-3.75,3.27,3.27,0,0,0-2.8-1.29,6.14,6.14,0,0,0-4.31,2.18,25.1,25.1,0,0,0-4.14,6.66A27.24,27.24,0,0,0,225,84.07Z" transform="translate(-29.25 -17.7)"/></g><g id="Layer_3_copy" data-name="Layer 3 copy"><path class="cls-3" d="M300.51,43.6,280,87.63h6.66q8.28,0,10.74-1.57a6.66,6.66,0,0,0,3.47-6,8.31,8.31,0,0,0-.56-3.19A15.63,15.63,0,0,0,297.77,73q-2.29-3.14-2.29-5,0-2.85,3.63-4.7L304,60.83a21.34,21.34,0,0,0,8-6.71,14.66,14.66,0,0,0,2.85-8.62A12.8,12.8,0,0,0,309.8,35q-5.08-4-13.37-4a36.92,36.92,0,0,0-16.23,3.81,34.35,34.35,0,0,0-12.53,10.07,21.36,21.36,0,0,0-4.75,13.09,10.52,10.52,0,0,0,1.23,5.15,15.34,15.34,0,0,0,4,4.36,10.34,10.34,0,0,1,2.3,2,3.64,3.64,0,0,1,.5,2.07,4.59,4.59,0,0,1-1.45,3.35,4.77,4.77,0,0,1-3.53,1.4,10,10,0,0,1-6.49-2.57,18.2,18.2,0,0,1-4.92-6.77,22.28,22.28,0,0,1-1.85-9.06,29.54,29.54,0,0,1,6.16-17.68,44.72,44.72,0,0,1,16.33-13.43,48.19,48.19,0,0,1,21.54-5,35.84,35.84,0,0,1,15,2.91,22.8,22.8,0,0,1,9.9,8.34,22.48,22.48,0,0,1,3.53,12.53q0,10.64-9.12,18.69a25.76,25.76,0,0,1-8.95,5.31A24.16,24.16,0,0,1,310.36,75a16.28,16.28,0,0,1-1.62,14.26,16.46,16.46,0,0,1-7.16,6.1,19.78,19.78,0,0,1-5.6,1.51,70.22,70.22,0,0,1-9,.45H275.62a19,19,0,0,1-3-.17,4.86,4.86,0,0,1-4.48-5.09,9.4,9.4,0,0,1,.45-2.63,34.63,34.63,0,0,1,1.74-4.08l20.87-44.82a19.71,19.71,0,0,1,3-4.92,4.46,4.46,0,0,1,3.3-1.23,4.59,4.59,0,0,1,3.3,1.23,4.19,4.19,0,0,1,1.29,3.08A15.24,15.24,0,0,1,300.51,43.6Z" transform="translate(-29.25 -17.7)"/><path class="cls-3" d="M325.79,77.06a12.13,12.13,0,0,1-1.56-5.77q0-7.55,9.84-12.42a63.31,63.31,0,0,1,6.16-2.63,15.38,15.38,0,0,1,4.14-1,4.45,4.45,0,0,1,3,1.12,3.86,3.86,0,0,1-.39,5.87,53.21,53.21,0,0,1-5.49,2.57l-3.86,1.68a11.76,11.76,0,0,0-3.47,2.18,3.38,3.38,0,0,0-1.06,2.47,6.22,6.22,0,0,0,.5,2.12q5.72-2.69,7.56-2.68a3.7,3.7,0,0,1,2.68,1.17,3.8,3.8,0,0,1,1.18,2.8A3.71,3.71,0,0,1,344.2,77a7.59,7.59,0,0,1-2.91,1.9l-3.53,1.57-5,2.24a22.61,22.61,0,0,0-4.42,2.51,3.39,3.39,0,0,0-1.4,2.58q0,2.07,2.85,2.07a29.76,29.76,0,0,0,9.4-2.13,68.94,68.94,0,0,0,11.42-5.48c2.61-1.6,4.4-2.41,5.37-2.41a3.66,3.66,0,0,1,3.75,3.75,5.22,5.22,0,0,1-2.19,4,41.8,41.8,0,0,1-8,4.82,65.38,65.38,0,0,1-11.19,4.36,36.06,36.06,0,0,1-9.56,1.34c-3.66,0-6.51-.85-8.56-2.57a8.42,8.42,0,0,1-3.14-6.94Q317.06,81.65,325.79,77.06Z" transform="translate(-29.25 -17.7)"/><path class="cls-3" d="M371.88,93.23a31.93,31.93,0,0,1-6.1,3.86,13.62,13.62,0,0,1-5.31,1A10,10,0,0,1,352.69,95a11.55,11.55,0,0,1-2.91-8.28q0-6.83,4.93-13.76a38.79,38.79,0,0,1,12.92-11.59,45.87,45.87,0,0,1,6.27-3,42.65,42.65,0,0,1,6.93-2.18,28.67,28.67,0,0,1,5.82-.78c3.4,0,5.09,1.34,5.09,4a3.21,3.21,0,0,1-1.23,2.79A11.05,11.05,0,0,1,386,63.74,45.54,45.54,0,0,0,377,66.31a37.7,37.7,0,0,0-7.55,4.37A29.31,29.31,0,0,0,362.2,78c-1.82,2.72-2.74,5.14-2.74,7.27A4.14,4.14,0,0,0,360.3,88a2.46,2.46,0,0,0,2.18,1.06,7.28,7.28,0,0,0,4.2-1.62,36.85,36.85,0,0,0,5.2-5.2l.51-1.23c1-2.31,1.53-3.56,1.67-3.75l1.74-3.69a16.75,16.75,0,0,1,3-4.81,4.55,4.55,0,0,1,3.36-1.35,4.39,4.39,0,0,1,3,1,3.4,3.4,0,0,1,1.18,2.63,13.2,13.2,0,0,1-1.46,4.53L383,79.46c-.12.26-.25.56-.4.9a7,7,0,0,1-.39.78,3.88,3.88,0,0,1-.28.59c-.11.2-.21.4-.3.59s-.2.39-.31.61a10.49,10.49,0,0,0-1.4,3.92,1.75,1.75,0,0,0,2,2A6.45,6.45,0,0,0,385,87.69c.9-.53,3-2,6.43-4.59a38.25,38.25,0,0,1,3.59-2.52,3.53,3.53,0,0,1,1.84-.5,3.93,3.93,0,0,1,2.63,1,3.42,3.42,0,0,1,1.12,2.47q0,3.4-7,8.22A45.37,45.37,0,0,1,385,96.69a17.46,17.46,0,0,1-6.82,1.4Q372.72,98.09,371.88,93.23Z" transform="translate(-29.25 -17.7)"/><path class="cls-3" d="M415.79,66.82a35.44,35.44,0,0,0-7.22,5.31A34.18,34.18,0,0,0,403,79a12.21,12.21,0,0,0-2.18,6c0,2.76,1.69,4.13,5.09,4.13a25.11,25.11,0,0,0,7.5-1.51,59.71,59.71,0,0,0,8.72-3.41l5.37-2.63a11,11,0,0,1,4.54-1.4,3.39,3.39,0,0,1,2.57,1.07,4,4,0,0,1,1,2.68,5.64,5.64,0,0,1-2.4,4.25,40.22,40.22,0,0,1-8.45,4.93,71,71,0,0,1-10.35,3.75,36,36,0,0,1-9.07,1.28,18.5,18.5,0,0,1-7.61-1.4,10.11,10.11,0,0,1-4.86-4.14A12.43,12.43,0,0,1,391.12,86a19.39,19.39,0,0,1,1.62-7.39,31.66,31.66,0,0,1,4.76-7.72A46.73,46.73,0,0,1,414,58.2a21.77,21.77,0,0,1,8.34-2.12,5.49,5.49,0,0,1,3.52,1.11,3.92,3.92,0,0,1,1.29,3,10.65,10.65,0,0,1-.67,3.13c-.52,1.38-.88,2.27-1.06,2.68l-1.85,4-1.18,2.52c-1,2.28-2.44,3.41-4.19,3.41a3.93,3.93,0,0,1-2.91-1.06,3.5,3.5,0,0,1-1.18-2.63A14.4,14.4,0,0,1,415.79,66.82Z" transform="translate(-29.25 -17.7)"/><path class="cls-3" d="M456.06,42.09,447.9,59.66a15.11,15.11,0,0,1,9.39-3.58,7.7,7.7,0,0,1,5.6,2A7,7,0,0,1,465,63.4q0,4-3.14,10.35l-2.52,5-2.29,4.59A11,11,0,0,0,455.78,87c0,1.27.58,1.9,1.74,1.9a4.81,4.81,0,0,0,1.84-.45,14.52,14.52,0,0,0,2.58-1.51q1.46-1,4.47-3.41t4.14-3a4.83,4.83,0,0,1,2.35-.62,3.64,3.64,0,0,1,3.59,3.58q0,2.4-3.42,5.43a51.48,51.48,0,0,1-6.49,4.75A33.72,33.72,0,0,1,460,96.92a16.65,16.65,0,0,1-5.6,1.17,8.64,8.64,0,0,1-6.38-2.4,8.13,8.13,0,0,1-2.46-6.16,16.23,16.23,0,0,1,1.18-5.31A92.57,92.57,0,0,1,452,73.08q2.5-5,2.51-6a1.41,1.41,0,0,0-1.62-1.57,11,11,0,0,0-4.76,1.8,38.41,38.41,0,0,0-5.87,4.3l-9.68,20.82a22.32,22.32,0,0,1-1.84,3.52,5.41,5.41,0,0,1-1.85,1.68,9.09,9.09,0,0,1-1.85.5h-.33a4.15,4.15,0,0,1-3-1.17A3.87,3.87,0,0,1,422.55,94a12.83,12.83,0,0,1,1.51-4.48l23.44-50.3a18.61,18.61,0,0,1,2.8-4.64,4.09,4.09,0,0,1,3-1.06,4.51,4.51,0,0,1,3.08,1.12,3.74,3.74,0,0,1,1.17,2.91A12.8,12.8,0,0,1,456.06,42.09Z" transform="translate(-29.25 -17.7)"/><path class="cls-3" d="M77.69,30.92a36.56,36.56,0,0,0-16.06,3.81A34.89,34.89,0,0,0,49.1,44.8a21.13,21.13,0,0,0-4.76,12.92,10.44,10.44,0,0,0,3.86,8.56l2.35,1.79a4.47,4.47,0,0,1,1.91,3.58,4.18,4.18,0,0,1-1.4,3.3,4.88,4.88,0,0,1-3.53,1.34,9.91,9.91,0,0,1-6.38-2.62,18.33,18.33,0,0,1-5-7,22.18,22.18,0,0,1-1.9-9,28.72,28.72,0,0,1,6.21-17.51,44.2,44.2,0,0,1,16.4-13.37,47.78,47.78,0,0,1,21.37-5,36.73,36.73,0,0,1,11.58,1.73A28,28,0,0,1,99,28.4a23.17,23.17,0,0,1,5.82,7.5,21.23,21.23,0,0,1,2.07,9.51,24.88,24.88,0,0,1-1.46,8.17A28.23,28.23,0,0,1,94.86,67.23,32.94,32.94,0,0,1,88,70.92a17.93,17.93,0,0,1-6.15,1.46,5.7,5.7,0,0,1-3.92-1.29,4.22,4.22,0,0,1-1.51-3.36q0-3.08,3.41-4.14l2.3-.67A21.12,21.12,0,0,0,89.61,59a18.69,18.69,0,0,0,5.09-6.27,16.83,16.83,0,0,0,1.79-7.38,12.6,12.6,0,0,0-2.35-7.56,16,16,0,0,0-6.72-5.09A25.73,25.73,0,0,0,77.69,30.92Zm-27.58,58,22.6-48.45a23.31,23.31,0,0,1,2-3.58,6.24,6.24,0,0,1,2-2.07,5.28,5.28,0,0,1,2.35-.5,4.52,4.52,0,0,1,3.25,1.23,4.22,4.22,0,0,1,1.28,3.08,13.7,13.7,0,0,1-1.62,4.92L59.39,92a16.81,16.81,0,0,1-2.91,4.87,4.84,4.84,0,0,1-3.41,1.28,4.37,4.37,0,0,1-3.24-1.28,4.26,4.26,0,0,1-1.29-3.14A12.34,12.34,0,0,1,50.11,88.88Z" transform="translate(-29.25 -17.7)"/><path class="cls-3" d="M101.18,80.21l8.61-18.41a16.43,16.43,0,0,1,2.8-4.58,4.07,4.07,0,0,1,3-1.12,4.43,4.43,0,0,1,3,1.12,3.65,3.65,0,0,1,1.23,2.91,12.34,12.34,0,0,1-1.51,4.53l-8.73,18.8a10.7,10.7,0,0,0-1.11,3.47c0,1.19.57,1.79,1.73,1.79q2.4,0,9-5.21a31.14,31.14,0,0,1,4-2.91,4.82,4.82,0,0,1,2.29-.72,3.51,3.51,0,0,1,2.58,1.06,3.56,3.56,0,0,1,1.06,2.63q0,2.75-5.2,6.94-9.47,7.6-16.79,7.6a8.9,8.9,0,0,1-6.38-2.34,8.11,8.11,0,0,1-2.4-6,14.16,14.16,0,0,1,.73-4.19A48.73,48.73,0,0,1,101.18,80.21Zm24.89-32a6.76,6.76,0,0,1-1.56,4.59,5.26,5.26,0,0,1-4.26,1.9,4.56,4.56,0,0,1-3.52-1.46,4.91,4.91,0,0,1-1.4-3.63A6.22,6.22,0,0,1,117,45.08a5.29,5.29,0,0,1,4.14-1.74,4.89,4.89,0,0,1,3.52,1.34A4.65,4.65,0,0,1,126.07,48.21Z" transform="translate(-29.25 -17.7)"/><path class="cls-3" d="M138.82,68.85l-1.06,2.24A16.92,16.92,0,0,1,135,75.62a4.11,4.11,0,0,1-3.07,1.18,4.06,4.06,0,0,1-3-1.18,3.63,3.63,0,0,1-1.23-2.91,12.8,12.8,0,0,1,1.51-4.47L135.8,54a32.69,32.69,0,0,1,2-3.92,5.24,5.24,0,0,1,1.57-1.57,4.43,4.43,0,0,1,2.07-.39,4.71,4.71,0,0,1,3.19,1.07,3.85,3.85,0,0,1,1.17,3,3.7,3.7,0,0,1-.16,1.23L145,55.82a7.09,7.09,0,0,0-.28,2,9.43,9.43,0,0,0,.51,3,52.37,52.37,0,0,0,2.18,5.37c.93,2,2,4.61,3.13,7.66a24.41,24.41,0,0,1,1.63,7.89A16.63,16.63,0,0,1,150,90a15.56,15.56,0,0,1-5.93,5.93,16.62,16.62,0,0,1-15.83.34,14.74,14.74,0,0,1-5.77-4.87,10.25,10.25,0,0,1-2.24-6.27,5.35,5.35,0,0,1,1.4-3.86,4.51,4.51,0,0,1,3.47-1.45A3.82,3.82,0,0,1,129,82.67l.84,2.35c1.08,3,3,4.53,5.65,4.53a6.91,6.91,0,0,0,5.26-2.18,7.28,7.28,0,0,0,2-5.2q0-2.69-3-10.29A19.68,19.68,0,0,1,138.82,68.85Z" transform="translate(-29.25 -17.7)"/><path class="cls-3" d="M192.13,70.36l-10.3,22a16.7,16.7,0,0,1-2.74,4.53A4.17,4.17,0,0,1,176,98.11a4.11,4.11,0,0,1-3-1.17A3.65,3.65,0,0,1,171.76,94a13.86,13.86,0,0,1,1.46-4.48l8.28-17.67q1.78-4,1.79-5c0-.86-.45-1.29-1.34-1.29q-2.58,0-9.57,5.82l-.28.22-9.68,20.76a17.23,17.23,0,0,1-2.74,4.53,4.19,4.19,0,0,1-3.08,1.17,4.09,4.09,0,0,1-3-1.17A3.65,3.65,0,0,1,152.35,94a12.83,12.83,0,0,1,1.51-4.48L166.78,61.8a17.31,17.31,0,0,1,2.8-4.58,4.07,4.07,0,0,1,3-1.12,4.22,4.22,0,0,1,3,1,4.09,4.09,0,0,1,1.23,2.8c3.44-2.53,6.49-3.8,9.18-3.8a7.34,7.34,0,0,1,4.36,1.23,5.56,5.56,0,0,1,2.24,3.47q6.5-4.71,12.2-4.7a8.24,8.24,0,0,1,5.71,2,6.55,6.55,0,0,1,2.23,5.09,15.84,15.84,0,0,1-1,5.37q-1.17,3-4.75,10.19c-1.79,3.62-2.8,5.7-3,6.26a5.16,5.16,0,0,0-.44,1.91,1.73,1.73,0,0,0,.56,1.28,1.52,1.52,0,0,0,1.23.62,6.12,6.12,0,0,0,3.13-1.12c1.19-.75,3.1-2.15,5.71-4.2,1.82-1.45,3.19-2.46,4.08-3a4.72,4.72,0,0,1,2.3-.61,3.69,3.69,0,0,1,2.63,1,3.48,3.48,0,0,1,1.06,2.52q0,2.17-3.47,5.48a39.57,39.57,0,0,1-6.27,4.76,30.19,30.19,0,0,1-6.6,3.24,15.79,15.79,0,0,1-5.54,1.23,8.68,8.68,0,0,1-6.32-2.23,7.7,7.7,0,0,1-2.41-6,17,17,0,0,1,1-5.54,71.18,71.18,0,0,1,3.58-8.22q3.91-7.62,3.92-9.29a1.25,1.25,0,0,0-.39-.9,1.61,1.61,0,0,0-1.07-.33Q197.89,65.61,192.13,70.36Z" transform="translate(-29.25 -17.7)"/><path class="cls-3" d="M215.11,84a30.25,30.25,0,0,1,1.79-10.18,32.19,32.19,0,0,1,4.93-9.07A23.55,23.55,0,0,1,229,58.34a16.08,16.08,0,0,1,8.12-2.24,13,13,0,0,1,6.65,1.62,11.22,11.22,0,0,1,4.26,4.76A18,18,0,0,1,249.52,70a31.46,31.46,0,0,1-3.08,13.65,28.23,28.23,0,0,1-8.22,10.52,17.21,17.21,0,0,1-10.63,4,11.61,11.61,0,0,1-9.07-3.86Q215.12,90.46,215.11,84Zm9.9.11a5.31,5.31,0,0,0,1.12,3.58A3.61,3.61,0,0,0,229,89q3.81,0,7.72-7.78a25.34,25.34,0,0,0,3.08-11.3,6.29,6.29,0,0,0-1-3.75,3.27,3.27,0,0,0-2.8-1.29,6.14,6.14,0,0,0-4.31,2.18,25.1,25.1,0,0,0-4.14,6.66A27.24,27.24,0,0,0,225,84.07Z" transform="translate(-29.25 -17.7)"/></g><path class="cls-4" d="M78.26,147V133.5L66.85,112.77h8.51l4.57,8.54c.34.65,1.77,3.6,2.06,4.2h.25c.69-1.44.84-1.68,2.06-4.1l4.38-8.64h8.4L86.22,133.22V147Z" transform="translate(-29.25 -17.7)"/><path class="cls-4" d="M102.89,121.54c2.9,0,6.63.24,8.94,3.79,1.28,2,1.63,4.81,1.63,9.24,0,5.09-.1,8-2.81,10.51-.88.79-2.5,2.33-7.12,2.33-1.58,0-4.33-.09-6-1-4.37-2.33-4.62-6.4-4.62-12.42C92.91,129.34,92.91,121.54,102.89,121.54Zm-3,14.76a26.9,26.9,0,0,0,.34,4,2.82,2.82,0,0,0,3,2.24c3.3,0,3.3-2.2,3.3-8.88,0-3.87,0-7.14-3.25-7.14s-3.39,3-3.39,5Z" transform="translate(-29.25 -17.7)"/><path class="cls-4" d="M137.84,122.29V147h-6.29v-4.2h-.3c-1.47,2.33-3.34,4.8-7.52,4.8-6.19,0-6.44-4.85-6.44-6.58V122.29h6.88V138.4c0,1.68.4,3.46,2.36,3.46a5.79,5.79,0,0,0,2.22-.66,6.82,6.82,0,0,0,2.21-1.92v-17Z" transform="translate(-29.25 -17.7)"/><path class="cls-4" d="M141.14,122.29h6.58v5.61h.2c2.46-5.43,5.26-6.17,7.77-6.26v8.54c-2.9,0-4.72,0-7.52,2.24V147h-7Z" transform="translate(-29.25 -17.7)"/><path class="cls-4" d="M170,112.77l3.73,16.2c.15.56.74,2.94.84,3.45l.64,3.37h.29c.1-.43.59-2.81.74-3.37s.78-3,.88-3.5L181,112.77h6.79l3.88,16.1c.05.24,1.57,6.63,1.67,6.92h.2c.34-1.83,1.42-6.49,1.42-6.59l3.84-16.43h7.08L197.32,147h-7.13l-4.32-16.86c-.64-2.47-1.18-5.18-1.38-6.35h-.19c-.25,1-1.23,5.51-1.48,6.44L178.65,147h-7.13l-8.75-34.27Z" transform="translate(-29.25 -17.7)"/><path class="cls-4" d="M214.78,118.18H208v-5.6h6.78ZM208,122.29h6.78V147H208Z" transform="translate(-29.25 -17.7)"/><path class="cls-4" d="M218.67,122.29h6.39v4.58h.14c1.53-2.66,4-5.09,7.48-5.09,6.58,0,6.58,5.28,6.58,7.14V147h-6.93V130.88c0-1,0-3.36-2.26-3.36-2,0-3.14,1.22-4.47,2.57V147h-6.93Z" transform="translate(-29.25 -17.7)"/><path class="cls-4" d="M248.41,136c0,2.52,0,6.77,4.77,6.77a14.81,14.81,0,0,0,6.93-1.82l.73,4.95a23.32,23.32,0,0,1-8.25,1.63c-3.2,0-8.46-.65-10-6.35a28.13,28.13,0,0,1-.64-4.95c0-4.34,0-8.4,1.77-11.16,2-3.17,5.85-3.5,8-3.5,4.23,0,6.24,1.68,7.52,3.5,1.58,2.2,1.58,4.53,1.58,10.93Zm6.63-3.69c0-3.74,0-6.58-3.48-6.58-3.25,0-3.2,3.45-3.15,6.58Z" transform="translate(-29.25 -17.7)"/><path class="cls-4" d="M287.49,129.58c2.06,2.71,2.36,3,4.86,5.88a23.15,23.15,0,0,0,3.06-6.82L302,130.7a24.82,24.82,0,0,1-4.82,9.1c1.48,1.31,3.64,1.35,4.87,1.4v6.68c-5.8.14-7.28-.89-10.08-2.94a16,16,0,0,1-10.32,3.12c-7.86,0-12.29-4.95-12.29-11.34s4.62-9,7.92-10.83a12.91,12.91,0,0,1-2.07-6.26c0-3.55,2.75-7.52,9.29-7.52,4.62,0,9.24,2.24,9.24,7.43,0,4.85-4.62,7.14-7.47,8.49Zm-.05,11a52.47,52.47,0,0,1-7.27-9.89,6.33,6.33,0,0,0-3.69,5.41,5.92,5.92,0,0,0,6,6A8.25,8.25,0,0,0,287.44,140.59Zm-3.83-16.66c4.18-2.11,4.18-4.16,4.18-4.72a3,3,0,0,0-3.15-2.94,2.86,2.86,0,0,0-3.14,2.94C281.5,120.61,282.38,122,283.61,123.93Z" transform="translate(-29.25 -17.7)"/><path class="cls-4" d="M310.85,112.77l3.73,16.2c.15.56.74,2.94.83,3.45l.64,3.37h.3c.1-.43.59-2.81.74-3.37s.78-3,.88-3.5l3.93-16.15h6.79l3.88,16.1c.05.24,1.57,6.63,1.67,6.92h.2c.34-1.83,1.42-6.49,1.42-6.59l3.84-16.43h7.07L338.22,147h-7.13l-4.32-16.86c-.64-2.47-1.18-5.18-1.38-6.35h-.19c-.25,1-1.23,5.51-1.48,6.44L319.55,147h-7.13l-8.75-34.27Z" transform="translate(-29.25 -17.7)"/><path class="cls-4" d="M346,125c2.21-1.63,4.42-3.27,10-3.27,1.82,0,5.7.42,7.82,2.43a6.14,6.14,0,0,1,2,5v12.14a1.63,1.63,0,0,0,1.52,1.55v4.48h-2a5.7,5.7,0,0,1-5.35-3.08h-.2a7.57,7.57,0,0,1-2.41,2.19,9.79,9.79,0,0,1-4.52,1.26c-2.75,0-7-1.35-7-7.05,0-2.29.88-5.93,5.6-8a22.64,22.64,0,0,1,7.47-1.73c0-2.43,0-3.13-.49-3.78a3.59,3.59,0,0,0-2.85-1.08,9.42,9.42,0,0,0-6.29,2.71Zm12.82,9.43c-1.52.28-6.48,1.17-6.48,5.42a2.81,2.81,0,0,0,2.75,3c3.15,0,3.73-3,3.73-4.62Z" transform="translate(-29.25 -17.7)"/><path class="cls-4" d="M373.72,122.29l2.66,9.76,1,4h.25c.49-1.92.58-2.47,1.13-4.44l2.45-9.29h6.64L381,147h-6.69L367,122.29Z" transform="translate(-29.25 -17.7)"/><path class="cls-4" d="M394.52,136c0,2.52,0,6.77,4.77,6.77a14.81,14.81,0,0,0,6.93-1.82l.73,4.95a23.36,23.36,0,0,1-8.25,1.63c-3.2,0-8.46-.65-10-6.35a28.13,28.13,0,0,1-.64-4.95c0-4.34,0-8.4,1.77-11.16,2-3.17,5.85-3.5,8-3.5,4.23,0,6.24,1.68,7.52,3.5,1.57,2.2,1.57,4.53,1.57,10.93Zm6.63-3.69c0-3.74,0-6.58-3.48-6.58-3.25,0-3.2,3.45-3.15,6.58Z" transform="translate(-29.25 -17.7)"/><path class="cls-4" d="M423.52,128.22c-2.31-1.49-3.44-2-5.06-2s-2.65.69-2.65,1.9,1.47,2,3.49,2.86c3.68,1.58,8,3.54,8,8.82,0,6.3-5.95,7.89-8.85,7.89a13.29,13.29,0,0,1-8.75-3.08l3.1-4.49c1.32,1.31,2.9,2.8,5.51,2.8,2.06,0,2.7-1.3,2.7-2.18,0-1.4-1-1.83-3.1-2.76-5.7-2.52-8.16-4.81-8.16-8.68a7.18,7.18,0,0,1,3.69-6.45,9.58,9.58,0,0,1,5.26-1.21,13.63,13.63,0,0,1,7.81,2.52Z" transform="translate(-29.25 -17.7)"/><path class="cls-4" d="M145.73,157.45h8.75c8.8,0,11.9,1.59,14,4.44,1.57,2.19,2.16,4.57,2.16,12.28l-.05,5.83c0,3.88-1,8-5,9.9a19.46,19.46,0,0,1-7.71,1.73c-1,.1-6.2.1-12.15.1Zm8.07,28.16h2.26c3.19,0,6.44-.56,6.44-7.15,0-1.16.09-3,.09-4.2,0-4.1-.09-7-1.32-8.64-1.53-2.1-3.25-2.1-7.47-2.1Z" transform="translate(-29.25 -17.7)"/><path class="cls-4" d="M180.34,180.71c-.05,2.52-.05,6.77,4.77,6.77a14.78,14.78,0,0,0,6.93-1.83l.74,5a23.42,23.42,0,0,1-8.26,1.63c-3.19,0-8.45-.66-10-6.35a27.16,27.16,0,0,1-.64-4.95c0-4.34,0-8.41,1.77-11.16,2-3.17,5.84-3.5,8-3.5,4.23,0,6.24,1.68,7.52,3.5,1.57,2.19,1.57,4.53,1.57,10.93ZM187,177c0-3.74,0-6.58-3.49-6.58-3.24,0-3.2,3.45-3.15,6.58Z" transform="translate(-29.25 -17.7)"/><path class="cls-4" d="M209.35,172.91c-2.31-1.49-3.44-2-5.07-2s-2.65.7-2.65,1.91,1.48,2,3.49,2.85c3.69,1.59,8,3.55,8,8.83,0,6.3-6,7.89-8.85,7.89a13.2,13.2,0,0,1-8.74-3.09l3.09-4.48c1.33,1.31,2.9,2.81,5.51,2.81,2.06,0,2.7-1.31,2.7-2.2,0-1.4-1-1.82-3.09-2.76-5.71-2.52-8.16-4.8-8.16-8.68a7.18,7.18,0,0,1,3.68-6.44,9.53,9.53,0,0,1,5.26-1.22,13.7,13.7,0,0,1,7.82,2.52Z" transform="translate(-29.25 -17.7)"/><path class="cls-4" d="M212.89,167h3.88v-9h6.83v9h5v4.76h-5v12.84c0,.8,0,2.1,3.44,2.1a15.87,15.87,0,0,0,1.92-.14v5.09a30.74,30.74,0,0,1-4.13.38c-3,0-8.06-.38-8.06-6.77v-13.5h-3.88Z" transform="translate(-29.25 -17.7)"/><path class="cls-4" d="M238.5,162.87h-6.78v-5.6h6.78ZM231.72,167h6.78v24.75h-6.78Z" transform="translate(-29.25 -17.7)"/><path class="cls-4" d="M242.38,167h6.4v4.58h.14c1.52-2.67,4-5.1,7.47-5.1,6.59,0,6.59,5.28,6.59,7.15v18.12h-6.93V175.57c0-1,.05-3.36-2.26-3.36-2,0-3.15,1.21-4.47,2.56v17h-6.94Z" transform="translate(-29.25 -17.7)"/><path class="cls-4" d="M264.85,169.64c2.22-1.64,4.43-3.27,10-3.27,1.82,0,5.7.42,7.82,2.43a6.15,6.15,0,0,1,2,5V186a1.63,1.63,0,0,0,1.53,1.54V192h-2a5.72,5.72,0,0,1-5.36-3.09h-.19a7.6,7.6,0,0,1-2.41,2.2,9.92,9.92,0,0,1-4.52,1.26c-2.75,0-7-1.36-7-7,0-2.29.88-5.93,5.6-8a22.61,22.61,0,0,1,7.47-1.72c0-2.43,0-3.13-.49-3.79a3.62,3.62,0,0,0-2.85-1.07,9.42,9.42,0,0,0-6.29,2.71Zm12.83,9.43c-1.52.28-6.48,1.17-6.48,5.42a2.8,2.8,0,0,0,2.74,3c3.15,0,3.74-3,3.74-4.62Z" transform="translate(-29.25 -17.7)"/><path class="cls-4" d="M285.8,167h3.88v-9h6.83v9h5v4.76h-5v12.84c0,.8,0,2.1,3.44,2.1a15.87,15.87,0,0,0,1.92-.14v5.09a30.87,30.87,0,0,1-4.13.38c-2.95,0-8.06-.38-8.06-6.77v-13.5H285.8Z" transform="translate(-29.25 -17.7)"/><path class="cls-4" d="M311.41,162.87h-6.79v-5.6h6.79ZM304.62,167h6.79v24.75h-6.79Z" transform="translate(-29.25 -17.7)"/><path class="cls-4" d="M325.27,166.23c2.9,0,6.64.23,9,3.78,1.27,2,1.62,4.81,1.62,9.25,0,5.09-.1,8-2.8,10.51-.89.78-2.51,2.33-7.13,2.33-1.57,0-4.33-.09-6-1-4.37-2.34-4.62-6.4-4.62-12.42C315.29,174,315.29,166.23,325.27,166.23Zm-3,14.75a27,27,0,0,0,.34,4,2.83,2.83,0,0,0,3,2.24c3.3,0,3.3-2.2,3.3-8.88,0-3.87,0-7.14-3.25-7.14s-3.39,3-3.39,4.95Z" transform="translate(-29.25 -17.7)"/><path class="cls-4" d="M339.68,167h6.39v4.58h.14c1.53-2.67,4-5.1,7.47-5.1,6.59,0,6.59,5.28,6.59,7.15v18.12h-6.93V175.57c0-1,.05-3.36-2.26-3.36-2,0-3.15,1.21-4.47,2.56v17h-6.93Z" transform="translate(-29.25 -17.7)"/><path class="cls-4" d="M435.29,113.32v1.92h-2.77v8.62H430v-8.62h-2.82v-1.92Z" transform="translate(-29.25 -17.7)"/><path class="cls-4" d="M436.41,113.32h3.27l1.31,4.39c.13.48.2.63.32,1.11.06.21.28,1.13.33,1.32h.08a23.23,23.23,0,0,1,.6-2.47l1.3-4.35h3.28v10.54h-2.13v-5.67c0-.75.06-2,.1-3h-.06l-2.29,8.68h-1.68l-2.36-8.68h-.07c0,.49.1,2.63.1,3.08v5.6h-2.1Z" transform="translate(-29.25 -17.7)"/><rect class="cls-4" x="36.57" y="94.57" width="381.17" height="82.23"/></g></svg>