<svg id="Layer_1" data-name="Layer 1" xmlns="http://www.w3.org/2000/svg" viewBox="0 0 1434.95 143.71"><defs><style>.cls-1{fill:#fff;}</style></defs><title>madebysimpleview</title><path class="cls-1" d="M1342.84,15.35a82.13,82.13,0,0,0-27.5,61.42,72,72,0,0,0,.49,8.33,89.13,89.13,0,0,1,54,0,74.16,74.16,0,0,0,.49-8.33,82.11,82.11,0,0,0-27.51-61.42" transform="translate(-4.1 -15.35)"/><path class="cls-1" d="M1147.7,55.4h15.12l15.42,52.13c1.18,3.81,1.76,7.93,1.91,7.93h.29a78.37,78.37,0,0,1,1.91-7.93l16.15-52h13.07l16,52c1.18,3.81,2.06,7.93,2.06,7.93h.29a59.28,59.28,0,0,1,1.77-7.93l15.56-52.13h15l-23.93,74.3h-15.71L1207.16,82c-1.17-3.82-2.05-8.07-2.05-8.07h-.29s-.89,4.25-2.06,8.07l-15.27,47.72h-15.86L1147.7,55.4" transform="translate(-4.1 -15.35)"/><path class="cls-1" d="M918.81,53.64c21,0,32.16,15.57,32.16,34.8,0,1.91-.44,6.17-.44,6.17H896.35c.73,16.3,12.33,24.52,25.54,24.52,12.78,0,22-8.67,22-8.67l5.87,10.43A44.22,44.22,0,0,1,921,131.46c-23.34,0-39.34-16.88-39.34-38.91,0-23.64,16-38.91,37.14-38.91m17.62,30.25C936,71.12,928.06,65,918.52,65c-10.87,0-19.68,6.75-21.73,18.94Z" transform="translate(-4.1 -15.35)"/><path class="cls-1" d="M848.19,26h14.24v80.9c0,9,3.53,10.57,7.93,10.57a23.92,23.92,0,0,0,2.5-.14V130a39.35,39.35,0,0,1-4.7.3c-8.08,0-20-2.21-20-20.85V26" transform="translate(-4.1 -15.35)"/><path class="cls-1" d="M534.29,110.46a31.87,31.87,0,0,0,21.29,8.67c6.17,0,12.33-3.23,12.33-9.25,0-13.66-38.17-10.87-38.17-35.09,0-13.51,12-21.15,26.87-21.15,16.29,0,23.93,8.23,23.93,8.23l-5.73,10.71S568.2,66,556.46,66c-6.17,0-12.19,2.64-12.19,9.1,0,13.36,38.18,10.42,38.18,34.8,0,12.33-10.58,21.58-26.87,21.58-18.21,0-28.19-10.87-28.19-10.87l6.9-10.13" transform="translate(-4.1 -15.35)"/><path class="cls-1" d="M632.36,55.4h13.81v9.84a51.18,51.18,0,0,1-.3,5.44h.3c3.52-8.67,13.94-17,25.54-17,12.48,0,19.82,5.73,22.32,16.89h.29a29.93,29.93,0,0,1,26.43-16.89c16.74,0,24.52,9.55,24.52,28.49V129.7H731V85.21c0-10.42-2.06-18.65-13.22-18.65-10.42,0-18.2,8.81-20.84,18.94a44,44,0,0,0-1,10.28V129.7H681.69V85.21c0-9.69-1.46-18.65-12.91-18.65-10.87,0-18.5,9-21.29,19.53a41.31,41.31,0,0,0-.88,9.69V129.7H632.36V55.4" transform="translate(-4.1 -15.35)"/><path class="cls-1" d="M762.89,55.4H776v6.32a52.6,52.6,0,0,1-.29,5.43H776s6.32-13.51,25-13.51c20,0,32.59,15.86,32.59,38.91,0,23.64-14.24,38.91-33.63,38.91-16.29,0-22.75-12.19-22.75-12.19h-.29s.29,2.65.29,6.46v33.33H762.89V55.4m34.79,63.87c11.75,0,21.44-9.69,21.44-26.57,0-16.15-8.66-26.58-21-26.58-11.15,0-21.43,7.79-21.43,26.72C776.69,106.06,784,119.27,797.68,119.27Z" transform="translate(-4.1 -15.35)"/><rect class="cls-1" x="594.72" y="40.05" width="14.24" height="74.29"/><path class="cls-1" d="M614.75,34.85A8.81,8.81,0,1,1,605.94,26a8.82,8.82,0,0,1,8.81,8.81" transform="translate(-4.1 -15.35)"/><path class="cls-1" d="M1108.21,53.64c21,0,32.15,15.57,32.15,34.8,0,1.91-.44,6.17-.44,6.17h-54.18c.74,16.3,12.34,24.52,25.55,24.52,12.77,0,22-8.67,22-8.67l5.88,10.43a44.22,44.22,0,0,1-28.78,10.57c-23.35,0-39.35-16.88-39.35-38.91,0-23.64,16-38.91,37.15-38.91m17.62,30.25c-.44-12.77-8.37-18.94-17.91-18.94-10.87,0-19.68,6.75-21.74,18.94Z" transform="translate(-4.1 -15.35)"/><path class="cls-1" d="M958.31,55.4h15.12l18.06,50.22c1.47,4.11,2.34,10.13,2.49,10.13h.3c.14,0,1.17-6,2.64-10.13L1015,55.4h15l-27.46,74.3H986.05L958.31,55.4" transform="translate(-4.1 -15.35)"/><rect class="cls-1" x="1039.29" y="40.05" width="14.24" height="74.29"/><path class="cls-1" d="M1059.32,34.85a8.81,8.81,0,1,1-8.81-8.81,8.82,8.82,0,0,1,8.81,8.81" transform="translate(-4.1 -15.35)"/><path class="cls-1" d="M1432.57,131a6.61,6.61,0,1,1-6.43,6.61,6.51,6.51,0,0,1,6.43-6.61m0,12a5.38,5.38,0,1,0-5.1-5.37A5.2,5.2,0,0,0,1432.57,143Zm-2.21-8.81H1433a2,2,0,0,1,2.15,2.08,1.8,1.8,0,0,1-1.25,1.81v0a2,2,0,0,1,.24.38l1.3,2.51H1434l-1.27-2.64h-1.11V141h-1.28Zm2.37,3.24a1.05,1.05,0,0,0,1.11-1.16,1,1,0,0,0-1.11-1.1h-1.09v2.26Z" transform="translate(-4.1 -15.35)"/><path class="cls-1" d="M1376.2,96.08a90.23,90.23,0,0,1-27,47.23,82.65,82.65,0,0,0,74.3,11.61,82.43,82.43,0,0,0-47.27-58.84" transform="translate(-4.1 -15.35)"/><path class="cls-1" d="M1262.22,154.93a82.64,82.64,0,0,0,74.3-11.62,90.17,90.17,0,0,1-27-47.22,82.37,82.37,0,0,0-47.26,58.84" transform="translate(-4.1 -15.35)"/><path class="cls-1" d="M1318.64,94a80.66,80.66,0,0,0,24.2,42.34A80.68,80.68,0,0,0,1367.05,94a79.54,79.54,0,0,0-48.41,0" transform="translate(-4.1 -15.35)"/><path class="cls-1" d="M4.7,121h9.48V80.79a2.32,2.32,0,0,0-2.64-2.52H4.1v-9H17.77c5.16,0,7.68,2.28,7.68,6.72v3.11a17.24,17.24,0,0,1-.36,3.48h.24c3-7.19,11.75-14.75,21.59-14.75s15.71,4.44,17.75,14.27h.24c3.36-7.55,11.75-14.27,21.71-14.27,13.43,0,19.79,7.8,19.79,23.27V121H116v9H94.78V93.63c0-8.52-1.56-15.24-10.68-15.24C72.71,78.39,66.23,90,66.23,102v19H75.7v9H54.6V93.63c0-7.92-1.2-15.24-10.56-15.24-11.51,0-18.23,12.24-18.23,24.11V121H35.4v9H4.7v-9" transform="translate(-4.1 -15.35)"/><path class="cls-1" d="M157.61,92.67h3.84V90.39c0-9.6-5.52-13-13-13-9.59,0-17.39,5.88-17.39,5.88L126.42,75a39,39,0,0,1,23-7.2c15.47,0,23.63,8,23.63,23.39v27.1a2.35,2.35,0,0,0,2.64,2.64h6.12v9H169.72c-5.4,0-7.56-2.64-7.56-6.6v-.84a14.48,14.48,0,0,1,.49-4h-.24s-5.28,12.84-20,12.84c-10.07,0-20.15-5.88-20.15-18.35,0-19.07,25.31-20.39,35.39-20.39m-12.72,29.74c10.32,0,16.68-10.55,16.68-19.67v-2.52h-3c-5.52,0-24.59.24-24.59,11.88C134,117.5,137.94,122.41,144.89,122.41Z" transform="translate(-4.1 -15.35)"/><path class="cls-1" d="M214.34,67.84c13.79,0,18.71,10.19,18.71,10.19h.24a27.17,27.17,0,0,1-.36-4.55V54.29H222.86v-9h21.71v73a2.35,2.35,0,0,0,2.64,2.64h6.11v9H241.21c-5.4,0-7.56-2.64-7.56-6.6v-.84a12.37,12.37,0,0,1,.36-3.24h-.24s-4.92,12.12-20.51,12.12c-16.31,0-26.51-13-26.51-31.79,0-19.31,11.28-31.78,27.59-31.78m1.44,53.49c9,0,17.51-6.47,17.51-21.59,0-11.15-5.63-21.71-17.15-21.71-9.72,0-17.51,7.8-17.51,21.59C198.63,112.82,205.7,121.33,215.78,121.33Z" transform="translate(-4.1 -15.35)"/><path class="cls-1" d="M289,67.84c17.27,0,26.26,12.71,26.26,28.43,0,1.56-.36,4.43-.36,4.43H270.51c.72,13.44,10.2,20.63,21,20.63,10.56,0,18.12-6.83,18.12-6.83l4.79,8.51a37.16,37.16,0,0,1-23.63,8.4c-19.07,0-32.14-13.79-32.14-31.79,0-19.31,13.07-31.78,30.35-31.78m14.27,25.43c-.36-10.68-6.84-16.2-14.51-16.2-8.88,0-16.08,6-17.76,16.2Z" transform="translate(-4.1 -15.35)"/><path class="cls-1" d="M360.47,54.29H350.28v-9h21.83V73.36a33.76,33.76,0,0,1-.36,5H372s5.4-10.55,19.55-10.55c16.43,0,26.75,13,26.75,31.78,0,19.31-11.64,31.79-27.71,31.79a21.2,21.2,0,0,1-19.19-11h-.24a32.59,32.59,0,0,1,.36,4.8V130h-11V54.29m28.55,67c9.48,0,17.39-7.79,17.39-21.59,0-13.19-7.07-21.71-17.15-21.71-9,0-17.51,6.36-17.51,21.83C371.75,110.66,377.39,121.33,389,121.33Z" transform="translate(-4.1 -15.35)"/><path class="cls-1" d="M437.08,145.44c5.16,0,9.12-3.6,11.16-8.39l2.52-6L429.53,78.27h-7.68v-9h27.71v9h-8l13.56,36.11a28.15,28.15,0,0,1,1.08,5.27h.35a36.18,36.18,0,0,1,1.45-5.27l13.43-36.11h-7.8v-9h26.87v9H482.9l-24,61.29c-4.07,10.32-12,15.6-21.35,15.6a24,24,0,0,1-13.07-3.84l4-8.76a14.6,14.6,0,0,0,8.63,2.88" transform="translate(-4.1 -15.35)"/></svg>