<svg id="Layer_2" data-name="Layer 2" xmlns="http://www.w3.org/2000/svg" viewBox="0 0 97.5 130"><defs><style>.cls-1{fill:#1072ba;}</style></defs><title>map pin</title><path class="cls-1" d="M34.66,114.09Q22,95.81,17.9,89.46,12.07,80.31,10,74.1A46.37,46.37,0,0,1,8,59.75a47.09,47.09,0,0,1,6.6-24.38A49.72,49.72,0,0,1,32.38,17.6,47,47,0,0,1,56.75,11a47,47,0,0,1,24.37,6.6A49.72,49.72,0,0,1,98.9,35.37a47.09,47.09,0,0,1,6.6,24.38,46.37,46.37,0,0,1-2,14.35q-2,6.21-7.87,15.36-4.06,6.35-16.76,24.63l-17,24.37a6.35,6.35,0,0,1-10.16,0Q45.07,128.82,34.66,114.09Zm36.44-40a20.26,20.26,0,0,0,0-28.7,20.26,20.26,0,0,0-28.7,0,20.26,20.26,0,0,0,0,28.7,20.26,20.26,0,0,0,28.7,0Z" transform="translate(-8 -11)"/></svg>